<svg class="visually-hidden" style="width: 0; height: 0;">
	<defs>
		<symbol id="icon-clipboard" viewBox="0 0 16 16" fill="none">
			<path d="M6.66602 8.66672C6.95232 9.04948 7.31759 9.36618 7.73705 9.59535C8.15651 9.82452 8.62035 9.9608 9.09712 9.99495C9.57388 10.0291 10.0524 9.9603 10.5002 9.79325C10.9481 9.62619 11.3548 9.36477 11.6927 9.02672L13.6927 7.02672C14.2999 6.39805 14.6359 5.55604 14.6283 4.68205C14.6207 3.80806 14.2701 2.97202 13.6521 2.354C13.0341 1.73597 12.198 1.38541 11.324 1.37781C10.45 1.37022 9.60802 1.7062 8.97935 2.31339L7.83268 3.45339" stroke="currentColor" stroke-width="2" stroke-linecap="round" stroke-linejoin="round"/>
			<path d="M9.33347 7.33332C9.04716 6.95057 8.68189 6.63387 8.26243 6.40469C7.84297 6.17552 7.37913 6.03924 6.90237 6.0051C6.4256 5.97095 5.94707 6.03974 5.49924 6.2068C5.0514 6.37386 4.64472 6.63527 4.3068 6.97332L2.3068 8.97332C1.69961 9.60199 1.36363 10.444 1.37122 11.318C1.37881 12.192 1.72938 13.028 2.3474 13.646C2.96543 14.2641 3.80147 14.6146 4.67546 14.6222C5.54945 14.6298 6.39146 14.2938 7.02013 13.6867L8.16013 12.5467" stroke="currentColor" stroke-width="2" stroke-linecap="round" stroke-linejoin="round"/>
		</symbol>
		<symbol id="icon-instagram" viewBox="0 0 16 16" fill="none">
			<path d="M13.3257 16H2.67433C1.20246 16 0 14.7975 0 13.3257V2.67433C0 1.20246 1.20246 0 2.67433 0H13.3257C14.7975 0 16 1.20246 16 2.67433V13.3257C16 14.8041 14.8041 16 13.3257 16Z" fill="currentColor"/>
			<circle cx="8" cy="8" r="3.35" stroke="black" stroke-width="1.3"/>
			<path d="M13 4C13.5523 4 14 3.55228 14 3C14 2.44772 13.5523 2 13 2C12.4477 2 12 2.44772 12 3C12 3.55228 12.4477 4 13 4Z" fill="black"/>
		</symbol>
		<symbol id="icon-linkedin" viewBox="0 0 16 16" fill="none">
			<path d="M3.61282 5.26172H0.269531V15.9233H3.61282V5.26172Z" fill="currentColor"/>
			<path d="M12.6564 5.03072C12.5331 5.01532 12.4022 5.00761 12.2712 4.99991C10.3993 4.92288 9.34391 6.03217 8.97415 6.50978C8.874 6.64074 8.82778 6.71777 8.82778 6.71777V5.29264H5.63086V15.9542H8.82778H8.97415C8.97415 14.868 8.97415 13.7895 8.97415 12.7033C8.97415 12.1179 8.97415 11.5324 8.97415 10.947C8.97415 10.2228 8.92022 9.45249 9.28228 8.79C9.59042 8.23535 10.1451 7.95803 10.769 7.95803C12.6179 7.95803 12.6564 9.62967 12.6564 9.78374C12.6564 9.79144 12.6564 9.79914 12.6564 9.79914V16.0004H15.9997V9.04421C15.9997 6.66385 14.7902 5.26183 12.6564 5.03072Z" fill="currentColor"/>
			<path d="M1.94126 3.88253C3.01339 3.88253 3.88253 3.01339 3.88253 1.94126C3.88253 0.869133 3.01339 0 1.94126 0C0.869129 0 0 0.869133 0 1.94126C0 3.01339 0.869129 3.88253 1.94126 3.88253Z" fill="currentColor"/>
		</symbol>
		<symbol id="icon-facebook" viewBox="0 0 16 16" fill="none">
			<path d="M12.8 0H10.4C9.33913 0 8.32172 0.421427 7.57157 1.17157C6.82143 1.92172 6.4 2.93913 6.4 4V6.4H4V9.6H6.4V16H9.6V9.6H12L12.8 6.4H9.6V4C9.6 3.78783 9.68429 3.58434 9.83431 3.43431C9.98434 3.28429 10.1878 3.2 10.4 3.2H12.8V0Z" fill="currentColor"/>
		</symbol>
		<symbol id="icon-skype" viewBox="0 0 20 20" fill="none">
			<path d="M19.1295 11.3822C19.1915 10.9322 19.2235 10.4902 19.2235 10.0642C19.2235 7.4982 18.3335 5.2782 16.5775 3.4682C14.8015 1.6402 12.6215 0.714195 10.0955 0.714195C9.80148 0.714195 9.51948 0.728195 9.25148 0.754195C8.45748 0.386195 7.60148 0.200195 6.69748 0.200195C5.00348 0.200195 3.48148 0.842195 2.30148 2.0582C1.13748 3.2542 0.521484 4.7802 0.521484 6.4742C0.521484 7.3502 0.685484 8.1802 1.01148 8.9462C0.961484 9.3222 0.937484 9.6962 0.937484 10.0642C0.937484 12.6322 1.83548 14.8522 3.60348 16.6642C5.38748 18.4882 7.57148 19.4122 10.0955 19.4122C10.3635 19.4122 10.6715 19.3902 11.0395 19.3482C11.7655 19.6462 12.5235 19.7962 13.2995 19.7962C14.9715 19.7962 16.4855 19.1502 17.6775 17.9242C18.8535 16.7202 19.4775 15.1862 19.4775 13.4882C19.4775 12.7802 19.3615 12.0722 19.1295 11.3822ZM13.6855 13.5262C13.3855 13.9762 12.9175 14.3482 12.2755 14.6482C11.6335 14.9042 10.8955 15.0322 10.0635 15.0322C9.05948 15.0322 8.21348 14.8502 7.53148 14.4862C7.03948 14.2102 6.65348 13.8562 6.37748 13.4302C6.07748 12.9602 5.92748 12.5222 5.92748 12.1162C5.92748 11.8602 6.02348 11.6342 6.21548 11.4422C6.40948 11.2482 6.65348 11.1542 6.95348 11.1542C7.16748 11.1542 7.38148 11.2302 7.59548 11.3782C7.76548 11.5482 7.89348 11.7642 7.97948 12.0202C8.00148 12.0422 8.14148 12.2862 8.39748 12.7582C8.50548 12.9062 8.69748 13.0562 8.97348 13.2062C9.23148 13.3342 9.57148 13.3982 9.99948 13.3982C10.5775 13.3982 11.0575 13.2702 11.4415 13.0142C11.7835 12.7782 11.9535 12.4802 11.9535 12.1162C11.9535 11.8162 11.8575 11.5922 11.6655 11.4422C11.4735 11.2482 11.2275 11.1002 10.9295 10.9922C10.8435 10.9702 10.7315 10.9422 10.5935 10.9122C10.4535 10.8802 10.2935 10.8382 10.1115 10.7822C9.92948 10.7282 9.77348 10.6922 9.64748 10.6702C8.92148 10.5222 8.30348 10.3282 7.78748 10.0922C7.33948 9.9222 6.93348 9.6242 6.56948 9.1962C6.27148 8.7902 6.12148 8.3082 6.12148 7.7542C6.12148 7.1982 6.28148 6.7082 6.60348 6.2802C6.92348 5.8522 7.38348 5.5322 7.98148 5.3182C8.58148 5.0822 9.26548 4.9662 10.0335 4.9662C10.6115 4.9662 11.1555 5.0402 11.6675 5.1902C12.1595 5.3602 12.5555 5.5642 12.8535 5.8002C13.1295 6.0562 13.3555 6.3122 13.5275 6.5682C13.6775 6.9102 13.7535 7.1882 13.7535 7.4022C13.7535 7.6822 13.6575 7.9162 13.4635 8.1062C13.2515 8.3202 13.0035 8.4282 12.7275 8.4282C12.4935 8.4282 12.2895 8.3642 12.1195 8.2342C12.0115 8.1282 11.8735 7.9362 11.7015 7.6582C11.5735 7.3582 11.3715 7.0922 11.0935 6.8562C10.8375 6.6642 10.4415 6.5682 9.90748 6.5682C9.37348 6.5682 8.96748 6.6762 8.68948 6.8902C8.38948 7.0842 8.24148 7.3082 8.24148 7.5622C8.24148 7.7322 8.29348 7.8742 8.40148 7.9802C8.50948 8.1302 8.64548 8.2482 8.81948 8.3342C8.92748 8.3982 9.10748 8.4742 9.36548 8.5582C9.42948 8.5802 9.57348 8.6182 9.79748 8.6702C10.0215 8.7262 10.2095 8.7622 10.3595 8.7822C10.6575 8.8462 11.1715 8.9842 11.8975 9.2002C12.3255 9.3482 12.7315 9.5402 13.1155 9.7782C13.4795 10.0322 13.7455 10.3222 13.9175 10.6422C14.0875 11.0262 14.1715 11.4542 14.1715 11.9242C14.1655 12.5002 14.0055 13.0342 13.6855 13.5262Z" fill="currentColor"/>
		</symbol>
		<symbol id="icon-telegram" viewBox="0 0 20 20" fill="none">
			<path fill-rule="evenodd" clip-rule="evenodd" d="M1.36937 9.33196C6.73698 6.94042 10.3103 5.3513 12.1046 4.58035C17.2115 2.39335 18.285 2.01573 18.9751 2C19.1285 2 19.4659 2.03147 19.6959 2.22027C19.8799 2.37761 19.926 2.58215 19.9566 2.73949C19.9873 2.89683 20.018 3.22724 19.9873 3.47898C19.7112 6.46841 18.515 13.7217 17.9016 17.0573C17.6409 18.4733 17.1348 18.9453 16.644 18.9925C15.5705 19.0869 14.7577 18.2688 13.7302 17.5765C12.1046 16.4908 11.1998 15.8143 9.62015 14.7444C7.79516 13.5172 8.97604 12.8406 10.0189 11.7392C10.2949 11.456 15.0031 7.05056 15.0951 6.65721C15.1104 6.61001 15.1104 6.4212 15.0031 6.3268C14.8957 6.2324 14.7424 6.26387 14.6197 6.29533C14.451 6.3268 11.8745 8.08899 6.85967 11.5662C6.12354 12.0854 5.46409 12.3371 4.86598 12.3214C4.20654 12.3057 2.94898 11.9438 1.99815 11.6291C0.847949 11.2515 -0.0722116 11.0469 0.00446848 10.3861C0.0504765 10.04 0.510557 9.69384 1.36937 9.33196Z" fill="currentColor"/>
		</symbol>
		<symbol id="icon-mail" viewBox="0 0 16 16" fill="none">
			<path d="M0.955091 2L7.99978 7.92004L15.0445 2H0.955091ZM0 2.7957V11C0 12.1046 0.895431 13 2 13H14C15.1046 13 16 12.1046 16 11V2.7957L8.39744 9.1868C8.28626 9.28016 8.14546 9.33131 7.99993 9.33131C7.85439 9.33131 7.71361 9.28016 7.60242 9.1868L0 2.7957Z" fill="currentColor"/>
		</symbol>
		<symbol id="icon-arrow-left" viewBox="0 0 24 24" fill="none">
			<path d="M19 12H5" stroke="currentColor" stroke-width="2" stroke-linecap="round" stroke-linejoin="round"/>
			<path d="M12 19L5 12L12 5" stroke="currentColor" stroke-width="2" stroke-linecap="round" stroke-linejoin="round"/>
		</symbol>
		<symbol id="icon-arrow-top" viewBox="0 0 24 24" fill="none">
			<path d="M12 19V5" stroke="currentColor" stroke-width="2" stroke-linecap="round" stroke-linejoin="round"/>
			<path d="M5 12L12 5L19 12" stroke="currentColor" stroke-width="2" stroke-linecap="round" stroke-linejoin="round"/>
		</symbol>
		<symbol id="icon-chevron-right" viewBox="0 0 24 24" fill="none">
			<path d="M9 18L15 12L9 6" stroke="currentColor" stroke-width="2" stroke-linecap="round" stroke-linejoin="round"/>
		</symbol>
		<symbol id="icon-chevron-left" viewBox="0 0 24 24" fill="none">
			<path d="M15 18L9 12L15 6" stroke="currentColor" stroke-width="2" stroke-linecap="round" stroke-linejoin="round"/>
		</symbol>
		<symbol id="icon-arrow-top-right" viewBox="0 0 24 24" fill="none">
			<path d="M7.05078 17.1602L16.5005 7.71045" stroke="currentColor" stroke-width="1.5" stroke-linecap="round" stroke-linejoin="round"/>
			<path d="M7.04972 6.51066C6.63551 6.51066 6.29972 6.84645 6.29972 7.26066C6.29972 7.67488 6.63551 8.01066 7.04972 8.01066L7.04972 6.51066ZM16.9492 7.26066H17.6992L17.6992 6.51066L16.9492 6.51066V7.26066ZM16.1992 17.1602C16.1992 17.5744 16.535 17.9102 16.9492 17.9102C17.3634 17.9102 17.6992 17.5744 17.6992 17.1602H16.1992ZM7.04972 8.01066L16.9492 8.01066V6.51066L7.04972 6.51066L7.04972 8.01066ZM16.1992 7.26066L16.1992 17.1602H17.6992L17.6992 7.26066H16.1992Z" fill="currentColor"/>
		</symbol>
		<symbol id="icon-big-button" viewBox="0 0 168 168" fill="none">
			<circle cx="84.0009" cy="83.9997" r="73.1044" stroke="currentColor"/>
			<path d="M41.8587 45.2274C41.6339 44.3953 41.6414 43.5807 41.8803 42.7799C42.1204 41.9804 42.579 41.2596 43.2572 40.6214C44.1356 39.7949 45.0613 39.3254 46.0327 39.2167C47.004 39.1079 47.9378 39.3453 48.8339 39.9313L47.5549 41.1345C47.0232 40.8131 46.4628 40.6931 45.8714 40.7715C45.2812 40.8514 44.7245 41.1361 44.2023 41.627C43.5242 42.2652 43.1939 43.0155 43.2159 43.8745C43.2365 44.7347 43.6488 45.5904 44.4526 46.4443C45.2634 47.3067 46.1005 47.7777 46.9615 47.8544C47.8211 47.9323 48.592 47.6518 49.2701 47.0136C49.7923 46.5227 50.113 45.9912 50.2308 45.4203C50.3486 44.8493 50.26 44.275 49.9647 43.6999L51.2438 42.4967C51.7403 43.4088 51.9098 44.3551 51.7497 45.3354C51.5896 46.3156 51.0788 47.2121 50.2176 48.022C49.5394 48.6602 48.7919 49.0757 47.9792 49.265C47.165 49.4555 46.349 49.4105 45.5284 49.1322C44.7077 48.854 43.9451 48.3383 43.2403 47.5904C42.5437 46.8498 42.083 46.0647 41.8582 45.2325L41.8587 45.2274Z" fill="currentColor"/>
			<path d="M62.2167 28.7866C62.8933 28.7945 63.5312 29.0002 64.1304 29.4036C64.7296 29.807 65.2376 30.4134 65.6559 31.2216L68.3183 36.3694L66.8854 37.109L64.329 32.1679C63.8779 31.2967 63.3194 30.7412 62.6499 30.5C61.9815 30.2601 61.2805 30.3291 60.547 30.7069C59.7928 31.097 59.3181 31.6485 59.1228 32.3614C58.9262 33.0754 59.0655 33.8901 59.5387 34.8025L62.0281 39.616L60.5952 40.3556L58.0388 35.4145C57.5877 34.5433 57.0292 33.9878 56.3597 33.7465C55.6913 33.5067 54.9903 33.5757 54.2568 33.9535C53.5026 34.3436 53.0279 34.8951 52.8326 35.608C52.636 36.322 52.7753 37.1367 53.2485 38.0491L55.7379 42.8626L54.2885 43.6109L49.7697 34.8833L51.2191 34.135L51.8705 35.3939C51.9201 34.7889 52.1242 34.2395 52.4803 33.7452C52.8364 33.251 53.3078 32.8539 53.8909 32.5523C54.6233 32.1731 55.356 32.0045 56.0893 32.044C56.8226 32.0835 57.4911 32.3494 58.097 32.8445C58.0221 32.1025 58.1797 31.4158 58.5659 30.7854C58.9521 30.155 59.4913 29.6619 60.1811 29.3057C60.8613 28.9551 61.5385 28.7824 62.2151 28.7903L62.2167 28.7866Z" fill="currentColor"/>
			<path d="M68.846 28.7499C69.1064 27.929 69.5482 27.2481 70.1714 26.7073C70.7946 26.1665 71.5345 25.8166 72.3925 25.6564C73.2385 25.4989 74.0062 25.5457 74.6985 25.7945C75.3893 26.0443 75.9383 26.4155 76.3465 26.912L76.0184 25.1478L77.6401 24.8481L79.4392 34.5127L77.8175 34.8124L77.4823 33.0137C77.2698 33.6365 76.8832 34.1914 76.3249 34.6788C75.7656 35.1648 75.0687 35.4864 74.2335 35.6397C73.3755 35.7999 72.5606 35.7303 71.7882 35.436C71.0159 35.1417 70.3592 34.6482 69.8177 33.9579C69.2762 33.2676 68.9137 32.4349 68.7315 31.4587C68.5477 30.472 68.5848 29.5668 68.8463 28.7473L68.846 28.7499ZM76.1193 28.1418C75.7244 27.6557 75.2518 27.3142 74.6975 27.118C74.1443 26.9233 73.5687 26.8797 72.9689 26.9912C72.3692 27.1026 71.849 27.3454 71.4072 27.7181C70.9666 28.0922 70.6492 28.5759 70.4563 29.1707C70.2634 29.7654 70.2355 30.4284 70.3703 31.1568C70.5078 31.8971 70.7756 32.5137 71.1711 33.0064C71.5666 33.499 72.039 33.8431 72.5853 34.0411C73.1331 34.2379 73.7061 34.2812 74.3059 34.1698C74.9056 34.0583 75.4286 33.8133 75.8737 33.4331C76.3189 33.0529 76.6381 32.5629 76.8304 31.9615C77.0226 31.3602 77.0508 30.6946 76.9146 29.9674C76.7787 29.2377 76.5139 28.6304 76.119 28.1444L76.1193 28.1418Z" fill="currentColor"/>
			<path d="M85.6031 26.0319L83.5414 26.0557L83.6493 34.5387L82.0172 34.5578L81.9093 26.0749L80.6363 26.0903L80.6198 24.7455L81.8928 24.7301L81.8839 24.031C81.8697 22.9309 82.1443 22.1244 82.7053 21.6087C83.2674 21.0944 84.1745 20.8298 85.4292 20.8152L85.4465 22.1782C84.7293 22.1871 84.2263 22.3328 83.9362 22.6163C83.6472 22.9013 83.506 23.3659 83.5149 24.0104L83.5238 24.7095L85.5855 24.6857L85.6019 26.0305L85.6031 26.0319Z" fill="currentColor"/>
			<path d="M92.0887 26.5934L90.0364 26.3867L89.1966 34.8286L87.573 34.6652L88.414 26.2247L87.147 26.0977L87.2807 24.7599L88.5477 24.8869L88.6165 24.1902C88.7253 23.0957 89.0875 22.3238 89.7032 21.8746C90.3188 21.4253 91.2496 21.2645 92.4997 21.3912L92.3643 22.747C91.6511 22.6744 91.1339 22.7653 90.8147 23.0135C90.4953 23.2643 90.3038 23.711 90.239 24.3522L90.1701 25.0488L92.2224 25.2556L92.0887 26.5934Z" fill="currentColor"/>
			<path d="M94.1699 35.3586C93.6517 34.9645 93.2806 34.5016 93.0551 33.971C92.8297 33.4405 92.7722 32.8809 92.8814 32.291L94.5176 32.7C94.4455 33.1883 94.5728 33.6312 94.8965 34.0335C95.2216 34.4347 95.7091 34.7167 96.359 34.8793C96.9618 35.0308 97.4703 35.0157 97.8856 34.8355C98.2995 34.6564 98.5581 34.3632 98.6599 33.9571C98.7641 33.5396 98.6557 33.1831 98.3346 32.8876C98.0136 32.5921 97.4892 32.2481 96.7615 31.8554C96.0998 31.494 95.5692 31.1597 95.1709 30.8567C94.7726 30.5536 94.4598 30.1731 94.2336 29.7166C94.0075 29.2601 93.9723 28.7249 94.1244 28.1092C94.2456 27.6231 94.5014 27.2114 94.8926 26.8779C95.2837 26.5444 95.7757 26.3249 96.3681 26.2219C96.962 26.1176 97.5997 26.1504 98.2837 26.3229C99.3386 26.5864 100.125 27.068 100.643 27.7638C101.159 28.4607 101.327 29.2781 101.14 30.2181L99.5577 29.8221C99.6472 29.3147 99.5466 28.864 99.2571 28.4715C98.9675 28.079 98.5144 27.8044 97.8987 27.6516C97.33 27.5099 96.8469 27.5184 96.4504 27.6784C96.0528 27.837 95.806 28.1157 95.7081 28.5092C95.6296 28.8226 95.667 29.1072 95.8205 29.3602C95.9727 29.6144 96.1873 29.8409 96.4659 30.0386C96.743 30.2374 97.1354 30.4814 97.6432 30.7679C98.2821 31.1245 98.793 31.4464 99.1771 31.7351C99.5601 32.0224 99.8629 32.385 100.081 32.8198C100.298 33.2573 100.34 33.7659 100.208 34.3484C100.078 34.8701 99.8164 35.3033 99.4228 35.6483C99.0292 35.9932 98.538 36.2193 97.9518 36.3243C97.3643 36.4304 96.7291 36.3979 96.0451 36.2254C95.314 36.0418 94.6893 35.7542 94.1725 35.3589L94.1699 35.3586Z" fill="currentColor"/>
			<path d="M118.092 38.1616C118.895 37.8544 119.709 37.7782 120.53 37.9355C121.35 38.0928 122.114 38.4773 122.819 39.0874C123.732 39.8779 124.293 40.7509 124.504 41.7064C124.714 42.6619 124.572 43.6154 124.082 44.5659L122.752 43.4145C123.015 42.854 123.079 42.2829 122.938 41.7036C122.798 41.1242 122.458 40.6006 121.915 40.1298C121.209 39.5197 120.429 39.2675 119.577 39.375C118.726 39.4825 117.916 39.9803 117.15 40.8659C116.375 41.7611 115.995 42.6405 116.006 43.5036C116.018 44.3682 116.377 45.1043 117.082 45.7144C117.625 46.1837 118.186 46.4496 118.768 46.5093C119.349 46.5702 119.91 46.4238 120.453 46.0701L121.783 47.2214C120.928 47.8084 120.004 48.0726 119.011 48.0115C118.02 47.9519 117.076 47.5329 116.182 46.7585C115.476 46.1483 114.985 45.4474 114.712 44.6573C114.439 43.8672 114.397 43.0505 114.591 42.2062C114.784 41.3604 115.216 40.5499 115.889 39.7735C116.553 39.0052 117.288 38.4675 118.092 38.1591L118.092 38.1616Z" fill="currentColor"/>
			<path d="M136.547 56.7575C136.61 57.4307 136.472 58.0868 136.132 58.7243C135.792 59.3619 135.243 59.9295 134.484 60.4257L129.64 63.5972L128.755 62.2464L133.403 59.2026C134.223 58.6656 134.717 58.0535 134.886 57.3616C135.056 56.6722 134.914 55.9808 134.462 55.2902C133.997 54.5801 133.399 54.1638 132.668 54.0413C131.938 53.9189 131.143 54.1386 130.283 54.703L125.756 57.6689L124.87 56.3181L129.518 53.2743C130.339 52.7373 130.832 52.1252 131.002 51.4333C131.172 50.7439 131.03 50.0525 130.578 49.3619C130.112 48.6518 129.514 48.2355 128.784 48.113C128.053 47.9906 127.259 48.2103 126.399 48.7747L121.872 51.7406L120.976 50.3745L129.192 44.9922L130.088 46.3583L128.903 47.1353C129.51 47.1247 130.077 47.2701 130.606 47.5755C131.134 47.8809 131.579 48.3069 131.939 48.8571C132.39 49.5477 132.636 50.2584 132.674 50.9928C132.711 51.7259 132.516 52.4193 132.086 53.0714C132.816 52.922 133.516 53.0077 134.184 53.3282C134.851 53.6498 135.398 54.1339 135.824 54.7842C136.244 55.4249 136.485 56.0805 136.548 56.7563L136.547 56.7575Z" fill="currentColor"/>
			<path d="M137.277 63.3513C138.121 63.5278 138.843 63.8965 139.447 64.4616C140.05 65.0253 140.475 65.7263 140.721 66.5644C140.965 67.3906 140.998 68.1597 140.824 68.872C140.648 69.5855 140.335 70.1698 139.884 70.6261L141.604 70.1201L142.072 71.703L132.647 74.4779L132.179 72.8951L133.934 72.3795C133.291 72.232 132.699 71.9033 132.157 71.3963C131.615 70.8893 131.222 70.2279 130.982 69.4137C130.734 68.5767 130.717 67.7585 130.93 66.9603C131.142 66.162 131.563 65.4583 132.194 64.8493C132.824 64.239 133.615 63.7952 134.566 63.5155C135.528 63.2316 136.432 63.1786 137.274 63.3536L137.277 63.3513ZM138.639 70.5259C139.081 70.0843 139.372 69.5772 139.508 69.008C139.645 68.4377 139.627 67.8599 139.454 67.2747C139.28 66.6894 138.986 66.1964 138.569 65.7952C138.152 65.3941 137.637 65.1277 137.025 64.9974C136.413 64.8657 135.751 64.9048 135.04 65.1145C134.318 65.327 133.733 65.6558 133.283 66.0992C132.836 66.5428 132.541 67.0457 132.403 67.6121C132.264 68.177 132.281 68.7508 132.454 69.336C132.628 69.9212 132.926 70.416 133.35 70.8205C133.775 71.225 134.297 71.4933 134.915 71.6229C135.533 71.7525 136.197 71.7137 136.907 71.504C137.618 71.2942 138.196 70.9687 138.638 70.5271L138.639 70.5259Z" fill="currentColor"/>
			<path d="M141.718 79.7428L141.482 77.6925L133.056 78.6581L132.868 77.0365L141.294 76.0709L141.149 74.8058L142.485 74.6535L142.63 75.9186L143.324 75.8386C144.417 75.7131 145.249 75.904 145.818 76.4099C146.388 76.9157 146.745 77.7933 146.889 79.0401L145.535 79.1958C145.453 78.483 145.255 77.9967 144.942 77.7372C144.629 77.4776 144.153 77.3853 143.51 77.4587L142.816 77.5388L143.053 79.5891L141.717 79.7414L141.718 79.7428Z" fill="currentColor"/>
			<path d="M141.83 86.2575L141.824 84.1947L133.342 84.2108L133.338 82.5786L141.82 82.5625L141.818 81.2893L143.162 81.2862L143.166 82.5608L143.866 82.5593C144.966 82.5581 145.77 82.8399 146.28 83.4074C146.789 83.9749 147.046 84.887 147.049 86.1407L145.687 86.1421C145.685 85.4255 145.543 84.9188 145.26 84.6271C144.979 84.3342 144.515 84.1898 143.869 84.1901L143.169 84.1916L143.174 86.2543L141.83 86.2575Z" fill="currentColor"/>
			<path d="M133.325 89.2151C133.663 88.6594 134.086 88.2432 134.59 87.9663C135.094 87.6895 135.646 87.5747 136.243 87.6242L136.005 89.2924C135.513 89.2701 135.083 89.4411 134.718 89.8045C134.353 90.1691 134.123 90.6809 134.027 91.345C133.939 91.9604 134.005 92.465 134.227 92.8586C134.449 93.2523 134.766 93.4798 135.18 93.54C135.607 93.6014 135.95 93.4569 136.211 93.1094C136.472 92.7605 136.76 92.2037 137.074 91.4401C137.367 90.7446 137.642 90.1839 137.903 89.7558C138.163 89.3288 138.51 88.9794 138.939 88.7095C139.37 88.4384 139.899 88.3499 140.527 88.4402C141.024 88.5124 141.458 88.7253 141.83 89.0804C142.202 89.4356 142.471 89.9027 142.635 90.4832C142.799 91.0622 142.832 91.7013 142.733 92.3989C142.579 93.476 142.182 94.3069 141.543 94.8917C140.904 95.4764 140.108 95.7233 139.154 95.6348L139.384 94.0191C139.898 94.0565 140.335 93.9123 140.696 93.5824C141.057 93.255 141.283 92.7753 141.372 92.1496C141.455 91.5699 141.397 91.091 141.196 90.7111C140.996 90.3326 140.695 90.1132 140.292 90.0554C139.973 90.0098 139.695 90.0748 139.458 90.2531C139.221 90.4313 139.019 90.6663 138.85 90.9618C138.681 91.2572 138.479 91.6717 138.247 92.2067C137.958 92.8779 137.69 93.4184 137.444 93.8312C137.198 94.2426 136.87 94.5783 136.457 94.8395C136.046 95.0994 135.543 95.193 134.95 95.1206C134.418 95.0436 133.961 94.8271 133.577 94.4695C133.193 94.1119 132.918 93.6481 132.753 93.0727C132.587 92.5 132.554 91.8635 132.655 91.1647C132.761 90.4184 132.984 89.7681 133.324 89.2137L133.325 89.2151Z" fill="currentColor"/>
			<path d="M130.148 117.652C130.465 118.452 130.55 119.264 130.404 120.086C130.257 120.909 129.883 121.676 129.282 122.388C128.504 123.31 127.637 123.88 126.684 124.1C125.732 124.319 124.777 124.188 123.82 123.71L124.954 122.367C125.519 122.626 126.089 122.683 126.667 122.535C127.244 122.391 127.763 122.044 128.226 121.495C128.827 120.783 129.069 120.001 128.95 119.15C128.833 118.299 128.326 117.495 127.431 116.737C126.527 115.972 125.643 115.599 124.78 115.621C123.917 115.643 123.184 116.009 122.583 116.721C122.12 117.27 121.863 117.833 121.809 118.415C121.756 118.996 121.909 119.556 122.269 120.095L121.135 121.437C120.537 120.586 120.261 119.666 120.309 118.673C120.358 117.681 120.763 116.734 121.527 115.828C122.127 115.116 122.822 114.619 123.608 114.337C124.395 114.056 125.211 114.006 126.059 114.191C126.906 114.374 127.721 114.799 128.507 115.463C129.283 116.12 129.83 116.848 130.149 117.65L130.148 117.652Z" fill="currentColor"/>
			<path d="M111.785 136.299C111.112 136.368 110.456 136.237 109.814 135.904C109.173 135.57 108.598 135.026 108.091 134.272L104.86 129.459L106.199 128.56L109.3 133.179C109.846 133.993 110.466 134.481 111.157 134.643C111.849 134.805 112.537 134.656 113.222 134.197C113.927 133.724 114.335 133.123 114.448 132.39C114.562 131.659 114.331 130.865 113.757 130.012L110.735 125.513L112.075 124.613L115.176 129.232C115.722 130.046 116.342 130.535 117.033 130.696C117.725 130.858 118.413 130.71 119.098 130.25C119.803 129.777 120.213 129.175 120.324 128.444C120.438 127.713 120.207 126.919 119.633 126.065L116.611 121.566L117.966 120.657L123.448 128.82L122.093 129.729L121.303 128.552C121.321 129.158 121.182 129.727 120.884 130.259C120.586 130.791 120.165 131.239 119.618 131.606C118.933 132.065 118.224 132.318 117.492 132.363C116.759 132.408 116.064 132.219 115.407 131.797C115.566 132.526 115.488 133.226 115.176 133.897C114.863 134.569 114.385 135.119 113.74 135.552C113.105 135.979 112.451 136.225 111.778 136.297L111.785 136.299Z" fill="currentColor"/>
			<path d="M105.211 137.095C105.046 137.939 104.686 138.667 104.13 139.276C103.574 139.884 102.878 140.317 102.045 140.573C101.222 140.825 100.454 140.866 99.7392 140.7C99.025 140.531 98.436 140.224 97.9734 139.779L98.5025 141.494L96.9254 141.977L94.0329 132.581L95.61 132.098L96.1488 133.847C96.2879 133.205 96.6083 132.609 97.1088 132.06C97.6092 131.511 98.2653 131.114 99.0761 130.865C99.9096 130.609 100.727 130.584 101.528 130.788C102.328 130.993 103.038 131.407 103.655 132.031C104.272 132.655 104.727 133.442 105.019 134.39C105.314 135.351 105.38 136.252 105.214 137.098L105.211 137.095ZM98.0566 138.532C98.5042 138.97 99.0135 139.256 99.5846 139.386C100.157 139.517 100.734 139.494 101.316 139.314C101.897 139.134 102.388 138.835 102.782 138.414C103.177 137.992 103.438 137.475 103.561 136.861C103.684 136.248 103.638 135.587 103.419 134.877C103.196 134.157 102.862 133.574 102.412 133.131C101.962 132.688 101.455 132.399 100.889 132.266C100.323 132.134 99.7477 132.157 99.166 132.336C98.5832 132.515 98.0922 132.819 97.6929 133.249C97.2936 133.679 97.0323 134.202 96.9112 134.821C96.79 135.44 96.8373 136.105 97.0546 136.813C97.2732 137.522 97.6064 138.094 98.0526 138.533L98.0566 138.532Z" fill="currentColor"/>
			<path d="M88.8728 141.707L90.9195 141.449L89.8497 133.031L91.4687 132.826L92.5385 141.244L93.8021 141.085L93.9716 142.42L92.708 142.579L92.7954 143.273C92.9341 144.363 92.7542 145.198 92.2552 145.772C91.7574 146.347 90.8834 146.713 89.6395 146.87L89.4678 145.518C90.1799 145.428 90.6623 145.226 90.9177 144.911C91.172 144.596 91.2599 144.118 91.1778 143.477L91.0904 142.783L89.0437 143.041L88.8742 141.706L88.8728 141.707Z" fill="currentColor"/>
			<path d="M82.3643 141.886L84.4262 141.859L84.304 133.376L85.9365 133.354L86.0586 141.837L87.3319 141.82L87.3509 143.165L86.0791 143.181L86.0891 143.882C86.1047 144.981 85.8325 145.79 85.2715 146.306C84.7106 146.822 83.8032 147.089 82.5485 147.103L82.5286 145.74C83.2458 145.731 83.7491 145.583 84.038 145.298C84.327 145.013 84.4671 144.547 84.4581 143.902L84.4481 143.202L82.3862 143.228L82.3671 141.883L82.3643 141.886Z" fill="currentColor"/>
			<path d="M79.3009 133.41C79.8615 133.743 80.2825 134.16 80.5653 134.663C80.8495 135.164 80.9704 135.714 80.9281 136.311L79.2568 136.089C79.2734 135.597 79.0977 135.17 78.7285 134.808C78.3594 134.445 77.843 134.22 77.1807 134.132C76.5646 134.05 76.0597 134.122 75.6699 134.347C75.2775 134.573 75.0553 134.893 75.0008 135.307C74.945 135.735 75.0927 136.076 75.4446 136.334C75.7966 136.592 76.357 136.873 77.1254 137.18C77.8233 137.465 78.3884 137.737 78.8186 137.993C79.2489 138.248 79.6018 138.591 79.8775 139.019C80.1533 139.446 80.2501 139.976 80.1671 140.604C80.102 141.1 79.8932 141.538 79.542 141.914C79.1923 142.289 78.7277 142.562 78.1508 142.733C77.5739 142.904 76.9357 142.943 76.2362 142.849C75.1579 142.707 74.322 142.318 73.7307 141.685C73.1383 141.051 72.8812 140.257 72.9582 139.303L74.5756 139.516C74.5439 140.031 74.6954 140.465 75.0285 140.824C75.3618 141.181 75.8422 141.402 76.4698 141.486C77.0513 141.563 77.5294 141.499 77.9053 141.297C78.2825 141.093 78.4967 140.789 78.5499 140.388C78.5926 140.068 78.5222 139.789 78.342 139.556C78.1621 139.32 77.9227 139.121 77.6254 138.955C77.3282 138.789 76.9105 138.592 76.3735 138.365C75.6988 138.083 75.1547 137.822 74.7401 137.579C74.3254 137.337 73.9851 137.012 73.7193 136.603C73.4536 136.193 73.354 135.692 73.4194 135.097C73.4894 134.563 73.7005 134.103 74.0526 133.716C74.4048 133.33 74.8664 133.047 75.4379 132.879C76.0097 132.707 76.6442 132.667 77.3437 132.76C78.0907 132.86 78.7433 133.074 79.3024 133.409L79.3009 133.41Z" fill="currentColor"/>
			<path d="M50.8313 130.524C50.0339 130.851 49.2253 130.944 48.3988 130.806C47.575 130.668 46.8019 130.3 46.0834 129.706C45.1519 128.936 44.5709 128.076 44.3393 127.126C44.1092 126.176 44.2279 125.22 44.6943 124.258L46.0509 125.378C45.7995 125.945 45.7506 126.516 45.9027 127.093C46.0562 127.668 46.4078 128.185 46.9614 128.643C47.6799 129.237 48.4659 129.47 49.3155 129.343C50.1652 129.216 50.9628 128.7 51.7081 127.798C52.461 126.885 52.8228 125.998 52.7907 125.135C52.7587 124.272 52.3836 123.542 51.6637 122.949C51.11 122.492 50.5429 122.24 49.961 122.194C49.3805 122.148 48.8217 122.306 48.2869 122.672L46.9304 121.552C47.7719 120.945 48.6901 120.66 49.6835 120.699C50.6757 120.737 51.6292 121.133 52.5429 121.887C53.2613 122.482 53.7679 123.17 54.0598 123.954C54.3516 124.738 54.4116 125.554 54.2371 126.402C54.0637 127.251 53.6499 128.072 52.9959 128.863C52.3492 129.646 51.6284 130.201 50.831 130.527L50.8313 130.524Z" fill="currentColor"/>
			<path d="M31.9586 112.349C31.8795 111.677 32.0032 111.018 32.3283 110.374C32.6534 109.73 33.1895 109.149 33.9388 108.635L38.7087 105.354L39.6249 106.684L35.0472 109.833C34.2393 110.389 33.7587 111.014 33.6069 111.707C33.4526 112.401 33.6107 113.089 34.0792 113.768C34.5599 114.468 35.1683 114.871 35.9005 114.975C36.6339 115.081 37.4228 114.843 38.2698 114.26L42.7302 111.193L43.6464 112.523L39.0688 115.673C38.2609 116.228 37.7803 116.853 37.6285 117.546C37.4741 118.24 37.6323 118.928 38.1008 119.607C38.5815 120.307 39.1898 120.71 39.9221 120.814C40.6555 120.92 41.4443 120.682 42.2913 120.099L46.7506 117.03L47.6771 118.376L39.5796 123.943L38.6531 122.597L39.8191 121.795C39.2122 121.82 38.6427 121.686 38.1068 121.394C37.5723 121.101 37.1186 120.685 36.7436 120.142C36.2751 119.463 36.0149 118.755 35.961 118.024C35.9059 117.292 36.088 116.594 36.502 115.931C35.7747 116.098 35.0755 116.028 34.4005 115.722C33.7255 115.417 33.1682 114.944 32.7271 114.303C32.2931 113.672 32.0377 113.021 31.9586 112.349Z" fill="currentColor"/>
			<path d="M31.0777 105.78C30.2296 105.623 29.4993 105.271 28.8832 104.72C28.2671 104.169 27.8271 103.479 27.5605 102.648C27.2982 101.828 27.2466 101.059 27.4058 100.343C27.565 99.6264 27.8643 99.0343 28.3048 98.5678L26.5968 99.1139L26.0927 97.5418L35.4511 94.551L35.9551 96.1231L34.2135 96.6802C34.8584 96.8138 35.4572 97.1274 36.0125 97.6215C36.5665 98.1166 36.9725 98.7689 37.2321 99.5772C37.4986 100.408 37.5337 101.226 37.34 102.03C37.1451 102.832 36.7404 103.547 36.1249 104.169C35.5092 104.794 34.7285 105.255 33.7839 105.558C32.8273 105.863 31.9256 105.938 31.0789 105.781L31.0777 105.78ZM29.5512 98.6382C29.12 99.09 28.8414 99.6035 28.717 100.175C28.5938 100.748 28.6236 101.326 28.8103 101.907C28.997 102.488 29.3036 102.974 29.7297 103.365C30.1558 103.757 30.6772 104.011 31.2925 104.129C31.9077 104.246 32.5683 104.191 33.2739 103.967C33.9903 103.738 34.5683 103.396 35.0075 102.942C35.4468 102.489 35.7277 101.978 35.853 101.41C35.9783 100.843 35.9482 100.268 35.7627 99.6877C35.576 99.1064 35.2671 98.6183 34.8321 98.2246C34.3984 97.8296 33.8707 97.5736 33.2501 97.4581C32.6295 97.3425 31.9663 97.397 31.2604 97.6242C30.5548 97.8487 29.9862 98.1882 29.5536 98.6411L29.5512 98.6382Z" fill="currentColor"/>
			<path d="M26.263 89.4932L26.5458 91.5364L34.9474 90.3799L35.1714 91.9973L26.7698 93.1538L26.9451 94.4153L25.613 94.5979L25.4377 93.3363L24.7446 93.4321C23.6561 93.5826 22.82 93.4095 22.2384 92.9181C21.6571 92.4241 21.2798 91.5562 21.1067 90.3118L22.4573 90.1259C22.5561 90.8364 22.7654 91.3186 23.083 91.5695C23.4018 91.8218 23.8802 91.9026 24.5205 91.8147L25.2137 91.7189L24.9309 89.6758L26.263 89.4932Z" fill="currentColor"/>
			<path d="M26.0013 82.983L26.0534 85.0451L34.532 84.8376L34.5739 86.4696L26.0939 86.6783L26.1265 87.9505L24.7829 87.9837L24.7503 86.7115L24.0518 86.7287C22.9519 86.7559 22.1414 86.493 21.6195 85.9359C21.0973 85.3815 20.8186 84.4751 20.7883 83.22L22.1502 83.186C22.169 83.903 22.3218 84.4056 22.6101 84.6901C22.8996 84.9759 23.3662 85.1115 24.0113 85.0955L24.7098 85.0783L24.6577 83.0162L26.0013 82.983Z" fill="currentColor"/>
			<path d="M34.439 79.8305C34.1127 80.3926 33.7008 80.819 33.2021 81.1081C32.7035 81.3971 32.1556 81.5228 31.5584 81.4875L31.7586 79.813C32.2514 79.825 32.6759 79.6443 33.0331 79.2724C33.3903 78.9005 33.6097 78.3812 33.6885 77.7167C33.7627 77.0985 33.684 76.5967 33.4539 76.2075C33.2239 75.8182 32.9007 75.5979 32.4856 75.5481C32.0577 75.4969 31.718 75.6482 31.4651 76.003C31.2123 76.3579 30.9366 76.9211 30.6396 77.6916C30.3635 78.3926 30.0991 78.9609 29.8491 79.394C29.599 79.8271 29.2602 80.1839 28.8365 80.4635C28.4115 80.7442 27.8856 80.8447 27.2558 80.7698C26.7571 80.7105 26.3193 80.5062 25.9384 80.1581C25.5586 79.8113 25.2795 79.3509 25.1014 78.7743C24.9245 78.1992 24.8759 77.5612 24.9607 76.8609C25.0903 75.7801 25.4681 74.9408 26.0931 74.3417C26.7181 73.7425 27.5083 73.4769 28.4638 73.5447L28.2689 75.1652C27.7552 75.1394 27.3201 75.2956 26.9664 75.6315C26.6127 75.9673 26.3994 76.4508 26.3227 77.0804C26.2534 77.6613 26.3226 78.1401 26.5308 78.5142C26.7389 78.8883 27.0459 79.1005 27.4481 79.1491C27.7682 79.1871 28.0455 79.1155 28.2777 78.9341C28.5112 78.7516 28.7076 78.5096 28.8692 78.2108C29.0308 77.912 29.2236 77.4927 29.4449 76.9528C29.7187 76.2749 29.9746 75.7279 30.21 75.3116C30.4468 74.8941 30.7687 74.5512 31.1733 74.2802C31.5791 74.0106 32.0795 73.905 32.6742 73.966C33.2075 74.0301 33.6711 74.2368 34.0624 74.586C34.455 74.934 34.7407 75.3937 34.9181 75.9638C35.0969 76.5326 35.1444 77.1692 35.0609 77.8684C34.9716 78.615 34.7636 79.272 34.4373 79.8342L34.439 79.8305Z" fill="currentColor"/>
			<circle cx="109.288" cy="34.8815" r="1.98931" transform="rotate(-39.4251 109.288 34.8815)" fill="currentColor"/>
			<circle cx="35.5129" cy="59.4803" r="1.98931" transform="rotate(-39.4251 35.5129 59.4803)" fill="currentColor"/>
			<circle cx="62.9123" cy="133.528" r="1.98931" transform="rotate(-39.4251 62.9123 133.528)" fill="currentColor"/>
			<circle cx="134.16" cy="105.856" r="1.98931" transform="rotate(-39.4251 134.16 105.856)" fill="currentColor"/>
			<rect x="0.708809" width="19.0117" height="19.0117" transform="matrix(0.708809 -0.705401 0.708809 0.705401 70.1693 85.1936)" stroke="currentColor"/>
		</symbol>

		<symbol id="icon-pagination-prev" viewBox="0 0 40 40" fill="none" xmlns="http://www.w3.org/2000/svg">
			<path d="M16 20L22 15.6699V24.3301L16 20Z" fill="currentColor"/>
		</symbol>

		<symbol id="icon-pagination-next" viewBox="0 0 40 40" fill="none" xmlns="http://www.w3.org/2000/svg">
			<path d="M24 20L18 15.6699V24.3301L24 20Z" fill="currentColor"/>
		</symbol>

		<symbol id="icon-link-arrow" viewBox="0 0 28 28" fill="none" xmlns="http://www.w3.org/2000/svg">
			<path d="M14.5119 12.5625H9V14.9375H14.5119V18.5L19.25 13.75L14.5119 9V12.5625Z" fill="currentColor"/>
		</symbol>

		<symbol id="icon-accordion-arrow" viewBox="0 0 16 9" fill="none" xmlns="http://www.w3.org/2000/svg">
			<path d="M8 9L15.7942 0H0.205771L8 9Z" fill="currentColor"/>
		</symbol>

		<symbol id="icon-bullet-list" viewBox="0 0 60 60" fill="none" xmlns="http://www.w3.org/2000/svg">
			<path d="M31.8809 56.4809C32.1563 58.1458 33.7618 59.269 35.3664 58.7465C40.1234 57.1973 44.4271 54.265 47.8014 50.2363C51.3071 46.0509 53.6422 40.8821 54.561 35.339C54.8069 33.8559 53.6915 32.5339 52.1952 32.3891C50.6661 32.2412 49.3267 33.3787 49.039 34.8878C48.238 39.0885 46.4153 42.9964 43.7412 46.1891C41.1394 49.2954 37.8469 51.5869 34.2049 52.8583C32.6787 53.391 31.617 54.8861 31.8809 56.4809Z" fill="rgb(var(--accent-2))"/>
			<path d="M52.232 28.3233C53.7362 28.2213 54.8902 26.9248 54.6793 25.4319C54.2303 22.2526 53.3146 19.1668 51.9626 16.2948C50.6908 13.5933 49.0531 11.1239 47.1095 8.96732C45.9752 7.70869 44.0057 7.91379 42.9914 9.27102C42.0923 10.4742 42.2796 12.1537 43.2786 13.2754C44.7937 14.9765 46.0726 16.9169 47.0701 19.0359C48.0669 21.1534 48.7673 23.4162 49.1521 25.7489C49.4013 27.2593 50.7046 28.4269 52.232 28.3233Z" fill="rgb(var(--accent-2))"/>
			<path d="M39.9623 6.41194C40.6787 5.05609 40.2358 3.36021 38.8615 2.68003C37.6667 2.08873 36.4349 1.59153 35.1754 1.19218C33.5677 0.682404 31.9716 1.81631 31.7073 3.48207C31.4537 5.08028 32.5274 6.56957 34.0591 7.09149C34.6122 7.27994 35.1582 7.49215 35.6959 7.7276C37.2584 8.41187 39.1655 7.92013 39.9623 6.41194Z" fill="rgb(var(--accent-2))"/>
			<path d="M24.5 42.5C31.4036 42.5 37 36.9036 37 30C37 23.0964 31.4036 17.5 24.5 17.5C17.5964 17.5 12 23.0964 12 30C12 36.9036 17.5964 42.5 24.5 42.5Z" fill="rgb(var(--accent-2))"/>
		</symbol>

		<symbol id="icon-oclock" viewBox="0 0 21 22" fill="none" xmlns="http://www.w3.org/2000/svg">
			<path d="M12.7873 16.7903L13.5373 18.0953C12.8173 18.4253 12.0298 18.6428 11.2123 18.7253V17.2103C11.7673 17.1428 12.2923 17.0003 12.7873 16.7903ZM4.51476 12.0128H2.99976C3.08226 12.8378 3.29976 13.6178 3.62976 14.3378L4.93476 13.5878C4.72476 13.0928 4.58226 12.5678 4.51476 12.0128ZM12.7873 5.73529L13.5373 4.43029C12.8173 4.10029 12.0373 3.88279 11.2123 3.80029V5.31529C11.7673 5.38279 12.2923 5.52529 12.7873 5.73529ZM16.4098 10.5128H17.9248C17.8423 9.68779 17.6248 8.90779 17.2948 8.18779L15.9898 8.93779C16.1998 9.43279 16.3423 9.95779 16.4098 10.5128ZM8.13726 16.7903L7.38726 18.0953C8.10726 18.4253 8.89476 18.6428 9.71226 18.7253V17.2103C9.15726 17.1428 8.63226 17.0003 8.13726 16.7903ZM9.71226 5.31529V3.80029C8.88726 3.88279 8.10726 4.10029 7.38726 4.43029L8.13726 5.73529C8.63226 5.52529 9.15726 5.38279 9.71226 5.31529ZM15.2323 7.64029L16.5373 6.88279C16.0648 6.23029 15.4873 5.65279 14.8348 5.18029L14.0773 6.48529C14.5198 6.82279 14.9023 7.20529 15.2323 7.64029ZM4.93476 8.93779L3.62976 8.18779C3.29976 8.90779 3.08226 9.68779 2.99976 10.5128H4.51476C4.58226 9.95779 4.72476 9.43279 4.93476 8.93779ZM16.4098 12.0128C16.3423 12.5678 16.1998 13.0928 15.9898 13.5878L17.2948 14.3378C17.6248 13.6178 17.8423 12.8303 17.9248 12.0128H16.4098ZM14.0848 16.0328L14.8423 17.3378C15.4948 16.8653 16.0723 16.2878 16.5448 15.6353L15.2398 14.8778C14.9023 15.3203 14.5198 15.7028 14.0848 16.0328ZM6.83976 6.49279L6.08976 5.18029C5.42976 5.66029 4.85976 6.23029 4.38726 6.89029L5.69226 7.64779C6.02226 7.20529 6.40476 6.82279 6.83976 6.49279ZM5.69226 14.8853L4.38726 15.6353C4.85976 16.2878 5.43726 16.8653 6.08976 17.3378L6.84726 16.0328C6.40476 15.7028 6.02226 15.3203 5.69226 14.8853ZM11.2123 7.51279H9.71226V11.5703L12.9298 14.7878L13.9873 13.7303L11.2123 10.9553V7.51279Z" fill="currentColor"/>
		</symbol>

		<symbol id="icon-sidebar-toggle" viewBox="0 0 18 18" fill="none" xmlns="http://www.w3.org/2000/svg">
			<path d="M0.75 2C0.75 1.30964 1.30964 0.75 2 0.75H6C6.69036 0.75 7.25 1.30964 7.25 2V6C7.25 6.69036 6.69036 7.25 6 7.25H2C1.30964 7.25 0.75 6.69036 0.75 6V4V3V2Z" stroke="rgb(var(--accent-2))" stroke-width="1.5"/>
			<rect x="0.75" y="10.75" width="6.5" height="6.5" rx="1.25" stroke="rgb(var(--accent-2))" stroke-width="1.5"/>
			<rect x="10.75" y="0.75" width="6.5" height="6.5" rx="1.25" stroke="rgb(var(--accent-2))" stroke-width="1.5"/>
			<rect x="10.75" y="10.75" width="6.5" height="6.5" rx="1.25" stroke="rgb(var(--accent-2))" stroke-width="1.5"/>
		</symbol>

		<symbol id="icon-sidebar-cross" viewBox="0 0 21 21" fill="none" xmlns="http://www.w3.org/2000/svg">
			<rect x="0.987305" y="18.896" width="26" height="2" transform="rotate(-45 0.987305 18.896)" fill="rgb(var(--accent-2))"/>
			<rect x="2.11597" y="0.223145" width="26" height="2" transform="rotate(45 2.11597 0.223145)" fill="rgb(var(--accent-2))"/>
		</symbol>

		<symbol id="icon-search" viewBox="0 0 16 16" fill="none" xmlns="http://www.w3.org/2000/svg">
			<path d="M11.4351 10.0629H10.7124L10.4563 9.81589C11.3528 8.77301 11.8925 7.4191 11.8925 5.94625C11.8925 2.66209 9.23042 0 5.94625 0C2.66209 0 0 2.66209 0 5.94625C0 9.23042 2.66209 11.8925 5.94625 11.8925C7.4191 11.8925 8.77301 11.3528 9.81589 10.4563L10.0629 10.7124V11.4351L14.6369 16L16 14.6369L11.4351 10.0629ZM5.94625 10.0629C3.66838 10.0629 1.82962 8.22413 1.82962 5.94625C1.82962 3.66838 3.66838 1.82962 5.94625 1.82962C8.22413 1.82962 10.0629 3.66838 10.0629 5.94625C10.0629 8.22413 8.22413 10.0629 5.94625 10.0629Z" fill="rgb(var(--accent-2))"/>
		</symbol>
	</defs>
</svg>
